<svg width="256" height="256" viewBox="0 0 256 256" fill="none" xmlns="http://www.w3.org/2000/svg">
<rect width="256" height="256" fill="white"/>
<path d="M114 103.2V157.8C114 163.72 113.8 168.36 113.4 171.72C113.08 175.16 112.4 177.96 111.36 180.12C109.6 183.88 107.24 186.6 104.28 188.28C101.4 189.96 97.8 190.8 93.48 190.8C88.36 190.8 84.24 189.8 81.12 187.8C77.92 185.88 76.32 183.08 76.32 179.4C76.32 177.08 77.04 175.04 78.48 173.28C79.92 171.6 82 170.76 84.72 170.76C87.04 170.76 88.88 171.48 90.24 172.92C91.68 174.36 92.4 176.12 92.4 178.2C92.4 179 92.2 179.84 91.8 180.72C91.48 181.6 90.96 182.28 90.24 182.76C90.4 183.64 90.88 184.16 91.68 184.32C92.56 184.48 93.16 184.56 93.48 184.56C95.24 184.56 96.56 183.44 97.44 181.2C98.32 178.96 98.76 174.92 98.76 169.08V112.2L89.52 109.92V103.2H114ZM97.8 84.96C97.8 82.4 98.56 80.32 100.08 78.72C101.68 77.12 103.88 76.32 106.68 76.32C109.48 76.32 111.68 77.12 113.28 78.72C114.88 80.32 115.68 82.4 115.68 84.96C115.68 87.44 114.88 89.48 113.28 91.08C111.76 92.68 109.56 93.48 106.68 93.48C103.8 93.48 101.6 92.72 100.08 91.2C98.56 89.6 97.8 87.52 97.8 84.96ZM125.017 112.8V105.12L136.657 103.44V100.2C136.657 91.64 138.977 85 143.617 80.28C148.337 75.56 154.617 73.2 162.457 73.2C167.177 73.2 170.937 74.36 173.737 76.68C176.617 78.92 178.057 81.8 178.057 85.32C178.057 87.88 177.377 89.88 176.017 91.32C174.737 92.68 172.937 93.36 170.617 93.36C168.057 93.36 166.057 92.72 164.617 91.44C163.257 90.16 162.577 88.4 162.577 86.16C162.577 84.48 163.217 83 164.497 81.72C163.697 80.28 162.497 79.56 160.897 79.56C159.377 79.56 158.097 79.88 157.057 80.52C155.377 81.64 154.177 83.08 153.457 84.84C152.737 86.52 152.297 88.44 152.137 90.6C151.977 92.68 151.897 94.88 151.897 97.2V103.2H167.257V112.8H151.897V159L164.857 161.28V168H127.417V161.28L136.657 159V112.8H125.017Z" fill="black"/>
</svg>
